<?xml version="1.0" encoding="utf-8"?>
<!-- Generator: Adobe Illustrator 23.0.2, SVG Export Plug-In . SVG Version: 6.00 Build 0)  -->
<svg version="1.1" id="Capa_1" xmlns="http://www.w3.org/2000/svg" xmlns:xlink="http://www.w3.org/1999/xlink" x="0px" y="0px"
	 viewBox="0 0 508.2 472.2" style="enable-background:new 0 0 508.2 472.2;" xml:space="preserve">
<style type="text/css">
	.st0{fill:#7B9E7B;}
	.st1{fill:none;stroke:#475649;stroke-width:0.25;stroke-miterlimit:10;stroke-dasharray:14.77,6.89;}
	.st2{fill:none;stroke:#475649;stroke-width:0.25;stroke-miterlimit:10;}
	.st3{fill:none;stroke:#FFFFFF;stroke-width:5;stroke-miterlimit:10;}
	.st4{opacity:0.14;enable-background:new    ;}
	.st5{opacity:0.15;enable-background:new    ;}
	.st6{fill:#917040;}
	.st7{fill:#2C448C;}
	.st8{fill:#DBCDA1;}
	.st9{fill:#731989;}
	.st10{fill:#A0892A;}
	.st11{fill:#8E1B0C;}
	.st12{fill:#23190B;}
	.st13{fill:#BC9153;}
	.st14{fill:#0A6D0A;}
	.st15{fill:#A8824A;}
	.st16{fill:#994C2F;}
	.st17{fill:#35323F;}
	.st18{fill:#2F1354;}
	.st19{fill:#BAB9B6;}
	.st20{fill:#35488E;}
	.st21{fill:#726E6A;}
</style>
<title>distancia-fisica-b-sombras</title>
<g id="distancias-b">
	<circle id="intimate-space" class="st0" cx="267" cy="271.7" r="50"/>
	<g id="personal-space">
		<circle class="st1" cx="267" cy="271.7" r="100"/>
	</g>
	<circle id="social-space" class="st2" cx="267" cy="271.7" r="150"/>
	<circle id="covid19-space" class="st3" cx="267" cy="271.7" r="200"/>
</g>
<path class="st4" d="M268.4,256.8l-21.9-16.2c0.7-3.5-0.6-7-3.5-9.1l-32.7-23.2c-4-2.8-9.5-1.9-12.3,2.1l-3.2,4.5
	c1.5-4.7-1.1-9.6-5.7-11.1c-4.7-1.5-9.6,1.1-11.1,5.7c-1.5,4.7,1.1,9.6,5.7,11.1c1.7,0.5,3.4,0.6,5.1,0.1c1-0.3,2-0.8,2.9-1.4
	l-4.1,5.8c-2.8,4-1.9,9.5,2.1,12.3l32.7,23.2c2.4,1.7,5.6,2.1,8.4,1l22.1,16.3c2.9,2.2,7.1,1.5,9.3-1.4l7.7-10.5
	C271.9,263.1,271.3,259,268.4,256.8z"/>
<path class="st4" d="M454.1,102.5l-23-14.6c0.5-3.5-1.1-7-4.1-8.8l-34.2-20.8c-4.2-2.5-9.6-1.2-12.1,3l-2.9,4.7
	c1.2-4.7-1.7-9.5-6.5-10.7c-1.7-0.4-3.5-0.3-5.2,0.3c-4.6,1.7-6.9,6.8-5.3,11.3c1.7,4.6,6.8,6.9,11.3,5.3c1-0.4,2-0.9,2.8-1.7
	l-3.7,6.1c-2.5,4.2-1.2,9.6,3,12.2l34.2,20.8c2.6,1.6,5.7,1.7,8.4,0.4l23.2,14.8c3.1,2,7.2,1.1,9.1-2l7-11
	C458.2,108.6,457.3,104.5,454.1,102.5C454.1,102.5,454.1,102.5,454.1,102.5z"/>
<path class="st4" d="M235.6,297.6l-18-11.4c0.4-2.7-0.9-5.4-3.3-6.9l-26.8-16.3c-3.3-1.9-7.5-0.9-9.5,2.3l-2.2,3.7
	c0.3-1.3,0.3-2.7-0.2-4c-1.3-3.6-5.3-5.4-8.9-4.1c-3.6,1.3-5.4,5.3-4.1,8.9c1.3,3.6,5.3,5.4,8.9,4.1c0.8-0.3,1.5-0.7,2.2-1.3
	l-2.9,4.8c-2,3.3-0.9,7.5,2.3,9.5l26.8,16.3c2,1.2,4.5,1.3,6.6,0.3l18.2,11.5c2.4,1.5,5.6,0.8,7.2-1.6l5.5-8.6
	C238.8,302.3,238.1,299.1,235.6,297.6z"/>
<path class="st5" d="M129.1,67.5l-21.5-20c1.3-3.5,0.4-7.5-2.4-10L73.1,8.6c-4-3.5-10.1-3.3-13.8,0.5L55,13.4
	c0.8-1.7,1.2-3.5,0.9-5.4c-0.9-5.2-5.8-8.7-11-7.9c-5.3,0.6-9,5.4-8.4,10.7c0.9,5.2,5.8,8.8,11,7.9c1.2-0.2,2.3-0.6,3.4-1.1L45.5,23
	c-3.6,3.6-3.6,9.3,0,12.9l21.3,32.8L39.7,48.2l-1.6-2.3c-3.2-4.6-9.4-6-14.3-3.2L18.3,46c1.3-1.5,2.1-3.3,2.3-5.3
	c0.4-5.6-3.7-10.4-9.2-10.9C5.9,29,0.8,32.9,0,38.4c0,0,0,0,0,0C-0.4,44,3.7,48.9,9.3,49.4c0,0,0,0,0,0c1.3,0.1,2.5,0.1,3.8-0.2
	l-7,4.2C1.5,56-0.1,61.8,2.6,66.4c0.1,0.2,0.2,0.4,0.3,0.5l25.3,37.9c2,2.9,5.2,4.6,8.6,4.6l16.8,26.3c2.3,3.5,7,4.6,10.7,2.6
	l13-7.4c3.5-1.9,4.7-6.3,2.8-9.7c-0.1-0.1-0.2-0.3-0.3-0.4l-16.7-26c2.3-3.2,2.4-7.6,0.2-10.9l-9.5-14.3l19,5l-5.7-19.1L78,65.2
	c2.5,2.2,5.8,3,9,2.2l21.7,20.2c3,2.7,7.5,2.6,10.4-0.2l10.1-9.9c2.7-2.6,2.8-7,0.2-9.7C129.3,67.7,129.2,67.6,129.1,67.5z"/>
<path class="st4" d="M496.1,322.3l-26.9-11.4c-0.1-3.8-2.4-7.2-6-8.6l-39.9-16c-4.9-1.9-10.4,0.5-12.3,5.4l-2.2,5.5
	c0.4-5.2-3.5-9.8-8.7-10.2c-5.2-0.4-9.8,3.5-10.2,8.7c-0.4,5.2,3.5,9.8,8.7,10.2c1.9,0.2,3.8-0.3,5.4-1.2c1-0.6,1.9-1.3,2.6-2.2
	l-2.8,7.1c-1.9,4.9,0.4,10.4,5.3,12.3l25.7,10.3l8.6,16.6l-1-1c-1.9-1.9-5-1.9-6.9,0l-2.1,2.1c0.4-0.9,0.6-1.8,0.5-2.8
	c-0.3-2.7-2.7-4.6-5.4-4.3s-4.6,2.7-4.3,5.4c0.3,2.7,2.7,4.6,5.4,4.3c0,0,0,0,0,0c0.6-0.1,1.2-0.2,1.7-0.5l-2.7,2.8
	c-1.9,1.9-1.9,5,0,6.9l15.6,15.5c1.2,1.2,2.8,1.6,4.4,1.3l10.5,10.8c1.4,1.4,3.7,1.5,5.1,0.1l5.1-5c1.4-1.4,1.5-3.7,0.1-5.1
	L459,368.4c0.7-1.8,0.3-3.9-1.1-5.2l-6.5-6.5l-12-22.7l9.5,3.8c3,1.2,6.4,0.8,9-1.1l27.1,11.5c3.6,1.5,7.8-0.2,9.3-3.8l5.4-12.9
	C501.4,327.9,499.7,323.8,496.1,322.3z"/>
<g id="personas-b">
	<g id="padre">
		<circle class="st6" cx="238.9" cy="282.7" r="5"/>
		<circle class="st6" cx="295.1" cy="282.7" r="5"/>
		<path class="st7" d="M284.7,256.7c-4.5-1.4-30.9-1.4-35.4,0c-11.2,3.7-15.3,25.2-15.3,25.2l9.3,3.3l4.8-8.3
			c18.9,2.4,18.9,2.4,37.9,0c0.7,1.2,4.8,8.3,4.8,8.3l9.3-3.3C300,282,295.9,260.5,284.7,256.7z"/>
		<path class="st6" d="M258.9,273c1.9,2.6,4.9,4.1,8.1,4.1c3.2,0,6.2-1.5,8.1-4.1C269.8,273.8,264.3,273.8,258.9,273L258.9,273z"/>
		<path d="M266.9,257.1c-5.5,0-10,4.5-10,10c0,2.1,0.7,4.2,1.9,5.9c2.7,0.4,5.4,0.6,8.1,0.6c2.7,0,5.4-0.2,8.1-0.6
			c3.3-4.5,2.3-10.7-2.2-14C271.1,257.8,269.1,257.1,266.9,257.1z"/>
	</g>
	<g id="colega">
		<circle class="st8" cx="410" cy="89.4" r="5"/>
		<circle class="st8" cx="446.8" cy="131.8" r="5"/>
		<path class="st9" d="M459.6,106.9c-1.9-4.3-19.2-24.3-23.2-26.8c-10.2-6-29.1,5-29.1,5l3.6,9.1c0,0,9.4-1.9,9.4-1.8
			c10.7,15.9,10.7,15.9,24.9,28.7c-0.4,1.3-3.1,9.1-3.1,9.1l8.5,4.9C450.6,135,464.2,117.9,459.6,106.9z"/>
		<path class="st8" d="M430.4,98.1c-1.2,5.4,2.1,10.7,7.5,12c1,0.2,2.1,0.3,3.1,0.2c-2.1-1.7-4-3.7-5.8-5.7
			C433.5,102.5,431.9,100.4,430.4,98.1z"/>
		<path class="st10" d="M447.7,93.7c-3.6-4.2-9.9-4.6-14.1-1c-1.6,1.4-2.7,3.2-3.2,5.3c1.4,2.3,3,4.5,4.8,6.5c1.8,2.1,3.7,4,5.8,5.7
			c2.1-0.2,4.1-1,5.7-2.4C450.9,104.2,451.4,97.9,447.7,93.7z"/>
	</g>
	<g id="hijo-mayor">
		<circle class="st6" cx="249.9" cy="311.2" r="4"/>
		<circle class="st6" cx="221.6" cy="276.2" r="4"/>
		<path class="st11" d="M210.7,295.7c1.4,3.5,14.7,19.9,17.8,22c8,5.1,23.4-3.2,23.4-3.2l-2.6-7.4l-7.6,1.2
			c-8-12.9-8-12.9-19.1-23.6c0.4-1.1,2.8-7.2,2.8-7.2l-6.7-4.1C218.7,273.5,207.4,286.9,210.7,295.7z"/>
		<path class="st6" d="M233.8,303.6c0.7-2.5,0.1-5.1-1.5-7.1c-1.6-2-4-3.1-6.6-3c1.6,1.4,3.1,3,4.4,4.7
			C231.5,299.9,232.7,301.7,233.8,303.6z"/>
		<path class="st12" d="M219.9,306.6c2.8,3.4,7.8,4,11.3,1.2c1.3-1.1,2.3-2.5,2.7-4.2c-1.1-1.9-2.3-3.6-3.7-5.3
			c-1.4-1.7-2.8-3.2-4.4-4.7c-4.4,0.2-7.8,3.9-7.7,8.3C218.3,303.6,218.9,305.3,219.9,306.6L219.9,306.6z"/>
	</g>
	<g id="mama-hijo-menor">
		<g id="mama-hijo-menor-2">
			<circle class="st13" cx="474.4" cy="364.1" r="3.5"/>
			<circle class="st13" cx="446.6" cy="391.9" r="3.5"/>
			<path class="st14" d="M464.6,399.7c2.9-1.5,16-14.6,17.5-17.5c3.7-7.4-4.9-20.1-4.9-20.1l-6.2,3c0,0,1.8,6.5,1.7,6.5
				c-10.5,8.2-10.5,8.2-18.8,18.8c-1-0.2-6.5-1.7-6.5-1.7l-3,6.2C444.5,394.8,457.2,403.4,464.6,399.7z"/>
			<path class="st13" d="M469.3,378.8c-2.2-0.3-4.4,0.4-6,2c-1.6,1.6-2.3,3.8-2,6C463.6,383.7,466.3,381.1,469.3,378.8z"/>
			<path d="M473.2,390.7c2.7-2.7,2.7-7.2,0-9.9c-1.1-1-2.4-1.7-3.9-2c-3.1,2.3-5.7,4.9-8,8c0.6,3.8,4.1,6.5,7.9,5.9
				C470.8,392.5,472.2,391.8,473.2,390.7z"/>
			<circle class="st15" cx="477.6" cy="301.2" r="5"/>
			<circle class="st15" cx="477.6" cy="357.4" r="5"/>
			<path class="st16" d="M503.5,347c1.4-4.5,1.4-30.9,0-35.4c-3.7-11.2-25.2-15.3-25.2-15.3l-3.3,9.3l8.3,4.8
				c-2.4,18.9-2.4,18.9,0,37.9l-8.3,4.8l3.3,9.3C478.3,362.3,499.8,358.2,503.5,347z"/>
			<path class="st15" d="M487.3,321.2c-2.6,1.9-4.1,4.9-4.1,8.1c0,3.2,1.5,6.2,4.1,8.1c-0.4-2.7-0.6-5.4-0.6-8.1
				C486.6,326.6,486.8,323.9,487.3,321.2z"/>
		</g>
		<path class="st17" d="M504.6,325.6c-0.7,0-1.4,0.2-1.9,0.6c-1.3-4.1-5.2-6.9-9.5-7c-2.1,0-4.2,0.7-5.9,1.9
			c-0.4,2.7-0.6,5.4-0.6,8.1c0,2.7,0.2,5.4,0.6,8.1c4.5,3.3,10.8,2.2,14-2.3c0.6-0.9,1.1-1.9,1.5-2.9c0.6,0.3,1.2,0.5,1.9,0.5
			c1.9,0,3.5-1.6,3.5-3.5C508.2,327.2,506.6,325.6,504.6,325.6z"/>
	</g>
	<g id="abuelos">
		<circle class="st6" cx="78" cy="161.9" r="4.5"/>
		<circle class="st6" cx="97" cy="115.1" r="4.5"/>
		<path class="st18" d="M71.8,114.9c-2.7,3.3-11.6,25.3-12,29.5c-0.7,10.6,15.9,21.3,15.9,21.3l5.9-6.6l-5.3-6.8
			c8.4-14.9,8.4-14.9,12.8-31.6c1.2-0.2,8.6-1.2,8.6-1.2l0.4-8.8C98.1,110.7,78.7,106.9,71.8,114.9z"/>
		<path class="st6" d="M76.7,142c4.8-1.2,7.7-6,6.5-10.8c-0.2-0.9-0.6-1.8-1.1-2.6c-0.5,2.4-1.2,4.7-2.2,6.9
			C79,137.7,77.9,139.9,76.7,142z"/>
		<path class="st19" d="M77.9,124.9c-3.5-1.5-7.6-0.5-10.1,2.4c-0.8-1.4-2.6-2-4.1-1.4c-1.6,0.7-2.4,2.6-1.7,4.2c0,0,0,0,0,0.1
			c0.6,1.4,2.2,2.2,3.7,2c-0.6,4.9,2.9,9.4,7.9,10c1.1,0.1,2.2,0.1,3.2-0.2c1.3-2.1,2.4-4.2,3.3-6.5c0.9-2.3,1.6-4.6,2.2-6.9
			C81.2,127,79.7,125.7,77.9,124.9z"/>
		<circle class="st13" cx="102" cy="108.2" r="5"/>
		<circle class="st13" cx="153.8" cy="86.3" r="5"/>
		<path class="st20" d="M134,66.5c-4.7,0.5-29,10.7-32.6,13.8c-8.8,7.8-4.3,29.2-4.3,29.2l9.8-0.6l1.2-9.5
			c18.3-5.2,18.3-5.2,34.9-14.8c1.1,0.8,7.6,5.8,7.6,5.8l7.3-6.6C158,83.7,145.8,65.6,134,66.5z"/>
		<g id="cabeza">
			<circle id="pelao" class="st13" cx="121.7" cy="83.1" r="9.5"/>
			<path id="pelaes" class="st21" d="M117.8,73.7c-5.1,2.2-7.5,8-5.3,13.1c0.8,2,2.3,3.6,4.1,4.7c2.6-0.7-4.8-11,3-13.9
				c7.9-2.5,9.5,9.1,11.8,7.6c0.5-2.1,0.3-4.2-0.5-6.2C128.8,74,122.9,71.6,117.8,73.7z"/>
		</g>
	</g>
</g>
</svg>
