<?xml version="1.0" encoding="utf-8"?>
<!-- Generator: Adobe Illustrator 23.0.2, SVG Export Plug-In . SVG Version: 6.00 Build 0)  -->
<svg version="1.1" id="Capa_1" xmlns="http://www.w3.org/2000/svg" xmlns:xlink="http://www.w3.org/1999/xlink" x="0px" y="0px"
	 viewBox="0 0 508.2 472.2" style="enable-background:new 0 0 508.2 472.2;" xml:space="preserve">
<style type="text/css">
	.st0{fill:#7D9E7D;}
	.st1{fill:none;stroke:#475649;stroke-width:0.75;stroke-miterlimit:10;stroke-dasharray:14.77,6.89;}
	.st2{fill:none;stroke:#475649;stroke-width:0.75;stroke-miterlimit:10;}
	.st3{opacity:0.14;enable-background:new    ;}
	.st4{opacity:0.15;enable-background:new    ;}
	.st5{fill:#917040;}
	.st6{fill:#2C448C;}
	.st7{fill:#DBCDA1;}
	.st8{fill:#731989;}
	.st9{fill:#A0892A;}
	.st10{fill:#8E1B0C;}
	.st11{fill:#23190B;}
	.st12{fill:#BC9153;}
	.st13{fill:#0A6D0A;}
	.st14{fill:#A8824A;}
	.st15{fill:#994C2F;}
	.st16{fill:#35323F;}
	.st17{fill:#2F1354;}
	.st18{fill:#BAB9B6;}
	.st19{fill:#35488E;}
	.st20{fill:#726E6A;}
</style>
<title>distancia-fisica-a-sombra</title>
<g id="distancias-a">
	<circle id="intimate-space" class="st0" cx="266.9" cy="272.1" r="50"/>
	<circle id="personal-space" class="st1" cx="266.9" cy="272.1" r="100"/>
	<circle id="social-space" class="st2" cx="266.9" cy="272.1" r="150"/>
</g>
<path class="st3" d="M268.1,257.2L246.2,241c0.7-3.5-0.6-7-3.5-9.1L210,208.8c-4-2.8-9.5-1.9-12.3,2.1l-3.2,4.5
	c1.5-4.7-1.1-9.7-5.7-11.2s-9.7,1.1-11.2,5.7s1.1,9.7,5.7,11.2c2.8,0.9,5.8,0.4,8.1-1.4l-4.1,5.8c-2.8,4-1.9,9.5,2.1,12.3L222,261
	c2.4,1.7,5.6,2.1,8.4,1l22.1,16.3c2.9,2.2,7.1,1.5,9.3-1.4l7.7-10.5C271.6,263.5,271,259.4,268.1,257.2z"/>
<path class="st3" d="M389.6,167.1l-23-14.6c0.5-3.5-1.1-7-4.2-8.8l-34.2-20.8c-4.2-2.5-9.6-1.2-12.1,3l-2.9,4.7
	c1.2-4.7-1.8-9.5-6.5-10.7c-4.7-1.2-9.5,1.8-10.7,6.5c-1.2,4.7,1.8,9.5,6.5,10.7c1.7,0.4,3.5,0.3,5.1-0.3c1-0.4,2-0.9,2.8-1.7
	l-3.7,6.1c-2.5,4.2-1.2,9.6,3,12.1l34.2,20.8c2.6,1.6,5.7,1.7,8.4,0.4l23.2,14.7c3.1,2,7.2,1.1,9.2-2l7-11
	C393.7,173.2,392.7,169.1,389.6,167.1C389.6,167.1,389.6,167.1,389.6,167.1z"/>
<path class="st3" d="M220.6,315.9l-18-11.4c0.4-2.7-0.9-5.4-3.3-6.9l-26.8-16.3c-3.3-1.9-7.5-0.9-9.5,2.3l-2.2,3.7
	c0.3-1.3,0.3-2.7-0.2-4c-1.3-3.6-5.3-5.4-8.9-4.1c-3.6,1.3-5.4,5.3-4.1,8.9s5.3,5.4,8.9,4.1c0.8-0.3,1.5-0.7,2.2-1.3l-2.9,4.8
	c-1.9,3.3-0.9,7.5,2.3,9.5l26.8,16.3c2,1.2,4.5,1.3,6.6,0.3l18.2,11.5c2.4,1.5,5.6,0.8,7.2-1.6l5.5-8.6
	C223.8,320.7,223.1,317.5,220.6,315.9C220.7,315.9,220.7,315.9,220.6,315.9z"/>
<path class="st4" d="M229.7,162.9l-21.5-20c1.3-3.5,0.4-7.5-2.4-10L173.7,104c-4-3.5-10.1-3.3-13.8,0.5l-4.2,4.3
	c0.8-1.7,1.2-3.5,0.9-5.4c-0.5-5.4-5.3-9.3-10.7-8.8c-5.4,0.5-9.3,5.3-8.8,10.7c0.5,5.4,5.3,9.3,10.7,8.8c0.1,0,0.3,0,0.4-0.1
	c1.2-0.2,2.3-0.5,3.4-1.1l-5.4,5.5c-3.6,3.6-3.6,9.3,0,12.9c0,0,0,0,0,0l21.3,32.8l-27.1-20.5l-1.6-2.4c-3.2-4.6-9.5-6-14.3-3.1
	l-5.4,3.3c1.3-1.5,2.1-3.3,2.3-5.2c0.9-5.7-2.9-11-8.6-11.9c-5.7-0.9-11,2.9-11.9,8.6c-0.9,5.7,2.9,11,8.6,11.9
	c0.2,0,0.3,0.1,0.5,0.1c1.3,0.1,2.5,0.1,3.8-0.2l-7,4.2c-4.6,2.6-6.1,8.5-3.5,13.1c0.1,0.2,0.2,0.4,0.3,0.5l25.3,37.9
	c2,2.9,5.2,4.6,8.7,4.6l16.8,26.3c2.3,3.5,7,4.6,10.7,2.6l13-7.4c3.5-1.9,4.7-6.3,2.8-9.8c-0.1-0.1-0.2-0.3-0.2-0.4l-16.7-26.1
	c2.3-3.2,2.4-7.6,0.2-10.9l-9.5-14.3l19,5l-5.8-19.1l10.9,9.8c2.5,2.2,5.8,3,9,2.2l21.7,20.2c3,2.7,7.5,2.6,10.4-0.2l10.1-9.9
	c2.7-2.6,2.9-6.9,0.2-9.7C229.9,163.1,229.8,163,229.7,162.9z"/>
<path class="st3" d="M348.2,265.8l-26.9-11.4c-0.1-3.8-2.4-7.2-6-8.6l-39.9-16c-4.9-1.9-10.4,0.4-12.3,5.3l-2.2,5.5
	c0.4-5.2-3.5-9.8-8.8-10.2c-5.2-0.4-9.8,3.5-10.2,8.8c-0.4,5.2,3.5,9.8,8.8,10.2c1.9,0.1,3.7-0.3,5.4-1.2c1-0.6,1.9-1.3,2.6-2.2
	l-2.8,7.1c-1.9,4.9,0.4,10.4,5.3,12.3l25.7,10.3l8.6,16.5l-1-1c-1.9-1.9-5-1.9-6.9,0l-2.1,2.2c0.4-0.9,0.6-1.8,0.5-2.8
	c-0.3-2.7-2.7-4.6-5.4-4.2c-2.7,0.3-4.6,2.7-4.2,5.4c0.3,2.7,2.7,4.6,5.4,4.2c0.6-0.1,1.2-0.2,1.7-0.5l-2.7,2.8
	c-1.9,1.9-1.9,5,0,6.9l15.6,15.5c1.2,1.2,2.8,1.6,4.4,1.3l10.5,10.8c1.4,1.4,3.7,1.5,5.1,0.1l5.1-5c1.4-1.4,1.5-3.7,0.1-5.1
	L311.1,312c0.7-1.8,0.3-3.9-1.1-5.2l-6.5-6.4l-12-22.7l9.5,3.8c3,1.2,6.4,0.8,9-1.1l27.1,11.5c3.6,1.5,7.8-0.2,9.3-3.8l5.5-12.9
	C353.5,271.5,351.8,267.4,348.2,265.8z"/>
<g id="personas-a">
	<g id="padre">
		<circle class="st5" cx="238.8" cy="283.1" r="5"/>
		<circle class="st5" cx="295" cy="283.1" r="5"/>
		<path class="st6" d="M284.5,257.1c-4.5-1.4-30.9-1.4-35.4,0c-11.2,3.7-15.3,25.2-15.3,25.2l9.3,3.3l4.8-8.3
			c18.9,2.4,18.9,2.4,37.9,0c0.7,1.2,4.8,8.3,4.8,8.3l9.3-3.3C299.9,282.4,295.8,260.9,284.5,257.1z"/>
		<path class="st5" d="M258.8,273.4c1.9,2.6,4.9,4.1,8.1,4.1c3.2,0,6.2-1.5,8.1-4.1C269.6,274.2,264.1,274.2,258.8,273.4z"/>
		<path d="M266.8,257.5c-5.5,0-10,4.5-10,10c0,2.1,0.7,4.2,1.9,5.9c2.7,0.4,5.4,0.6,8.1,0.6c2.7,0,5.4-0.2,8.1-0.6
			c3.3-4.5,2.3-10.7-2.2-14C271,258.2,268.9,257.5,266.8,257.5z"/>
	</g>
	<g id="colega">
		<circle class="st7" cx="345.6" cy="154" r="5"/>
		<circle class="st7" cx="382.4" cy="196.5" r="5"/>
		<path class="st8" d="M395.2,171.6c-1.9-4.3-19.2-24.3-23.2-26.8c-10.2-6-29.1,5-29.1,5l3.6,9.1c0,0,9.4-1.9,9.4-1.8
			c10.6,15.8,10.6,15.8,24.8,28.6c-0.4,1.3-3.1,9.1-3.1,9.1l8.5,4.9C386.1,199.7,399.8,182.5,395.2,171.6z"/>
		<path class="st7" d="M366,162.8c-1.2,5.4,2.1,10.7,7.5,12c1,0.2,2.1,0.3,3.1,0.2c-2.1-1.7-4-3.7-5.8-5.7
			C369,167.3,367.4,165.1,366,162.8z"/>
		<path class="st9" d="M383.2,158.4c-3.6-4.2-9.9-4.6-14.1-1c-1.6,1.4-2.7,3.2-3.2,5.3c1.4,2.3,3,4.5,4.8,6.5c1.8,2.1,3.7,4,5.8,5.7
			c2.1-0.2,4.1-1,5.7-2.4c4.2-3.5,4.7-9.8,1.1-13.9C383.3,158.5,383.3,158.5,383.2,158.4z"/>
	</g>
	<g id="hijo-mayor">
		<circle class="st5" cx="235.1" cy="329.3" r="4"/>
		<circle class="st5" cx="206.9" cy="294.4" r="4"/>
		<path class="st10" d="M195.9,313.9c1.4,3.5,14.7,19.9,17.8,22c8,5.1,23.4-3.2,23.4-3.2l-2.6-7.4l-7.6,1.2
			c-8-12.9-8-12.9-19.1-23.6c0.4-1.1,2.8-7.2,2.8-7.2l-6.7-4.1C203.9,291.7,192.6,305.1,195.9,313.9z"/>
		<path class="st5" d="M219,321.8c0.7-2.5,0.1-5.1-1.5-7.1c-1.6-2-4-3.1-6.6-3c1.6,1.4,3.1,3,4.4,4.7
			C216.7,318.1,217.9,319.9,219,321.8z"/>
		<path class="st11" d="M205.1,324.8c2.8,3.4,7.8,4,11.3,1.2c1.3-1.1,2.3-2.5,2.7-4.2c-1.1-1.9-2.3-3.6-3.7-5.3
			c-1.4-1.7-2.8-3.2-4.4-4.7c-4.4,0.2-7.8,3.9-7.7,8.3C203.4,321.9,204,323.5,205.1,324.8L205.1,324.8z"/>
	</g>
	<g id="mama-hijo-menor">
		<g id="mama-hijo-menor-2">
			<circle class="st12" cx="326.5" cy="307.4" r="3.5"/>
			<circle class="st12" cx="298.8" cy="335.2" r="3.5"/>
			<path class="st13" d="M316.8,342.9c2.9-1.5,16-14.6,17.5-17.5c3.7-7.4-4.9-20.1-4.9-20.1l-6.2,3c0,0,1.8,6.5,1.7,6.5
				c-10.5,8.2-10.5,8.2-18.8,18.8c-1-0.2-6.5-1.7-6.5-1.7l-3,6.2C296.6,338,309.4,346.6,316.8,342.9z"/>
			<path class="st12" d="M321.5,322.1c-2.2-0.3-4.4,0.4-6,2c-1.6,1.6-2.3,3.8-2,6C315.7,327.1,318.4,324.4,321.5,322.1z"/>
			<path d="M325.4,333.9c2.7-2.7,2.7-7.2,0-9.9c-1.1-1-2.4-1.7-3.9-2c-3.1,2.3-5.7,4.9-8,8c0.2,1.5,0.9,2.8,2,3.9
				c2.6,2.7,7,2.8,9.7,0.2C325.2,334.1,325.3,334,325.4,333.9z"/>
			<circle class="st14" cx="329.8" cy="244.5" r="5"/>
			<circle class="st14" cx="329.8" cy="300.6" r="5"/>
			<path class="st15" d="M355.6,290.3c1.4-4.5,1.4-30.9,0-35.4c-3.7-11.2-25.2-15.3-25.2-15.3l-3.3,9.3l8.3,4.8
				c-2.4,18.9-2.4,18.9,0,37.9l-8.3,4.8l3.3,9.3C330.5,305.6,352,301.5,355.6,290.3z"/>
			<path class="st14" d="M339.5,264.4c-2.6,1.9-4.1,4.9-4.1,8.1c0,3.2,1.5,6.2,4.1,8.1c-0.4-2.7-0.6-5.4-0.6-8.1
				C338.8,269.8,339,267.1,339.5,264.4z"/>
		</g>
		<path class="st16" d="M356.8,268.9c-0.7,0-1.4,0.2-1.9,0.6c-1.3-4.1-5.2-6.9-9.5-7c-2.1,0-4.2,0.7-5.9,1.9
			c-0.4,2.7-0.6,5.4-0.6,8.1c0,2.7,0.2,5.4,0.6,8.1c4.5,3.3,10.8,2.2,14-2.3c0.6-0.9,1.1-1.9,1.5-2.9c0.6,0.3,1.2,0.5,1.9,0.5
			c1.9,0,3.5-1.6,3.5-3.5C360.3,270.5,358.7,269,356.8,268.9z"/>
	</g>
	<g id="abuelos">
		<circle class="st5" cx="176.2" cy="256.5" r="4.5"/>
		<circle class="st5" cx="197.1" cy="210.5" r="4.5"/>
		<path class="st17" d="M171.9,209.3c-2.8,3.2-12.6,24.9-13.1,29.1c-1.1,10.6,15,22,15,22l6.1-6.4l-5.1-7c8.9-14.6,8.9-14.6,14-31.1
			c1.2-0.2,8.6-0.9,8.6-0.9l0.7-8.8C198.2,206.1,179.1,201.5,171.9,209.3z"/>
		<path class="st5" d="M175.6,236.5c2.8-0.6,5.1-2.5,6.3-5.1c1.2-2.6,1-5.6-0.4-8.1c-0.6,2.3-1.4,4.6-2.4,6.8
			C178.2,232.4,177,234.5,175.6,236.5z"/>
		<path class="st18" d="M177.6,219.5c-3.5-1.6-7.6-0.8-10.2,2c-0.8-1.6-2.8-2.2-4.4-1.3c-1.5,0.8-2.1,2.5-1.5,4
			c0.6,1.4,2.1,2.3,3.6,2.1c-0.8,4.9,2.6,9.5,7.5,10.3c1.1,0.2,2.2,0.1,3.3-0.1c1.3-2,2.5-4.2,3.5-6.4c1-2.2,1.8-4.5,2.4-6.8
			C180.8,221.7,179.3,220.4,177.6,219.5z"/>
		<circle class="st12" cx="202.2" cy="203.7" r="5"/>
		<circle class="st12" cx="254.9" cy="183.9" r="5"/>
		<path class="st19" d="M236,163.3c-4.7,0.3-29.4,9.6-33.1,12.5c-9.1,7.5-5.4,29-5.4,29l9.8-0.3l1.5-9.5
			c18.5-4.4,18.5-4.4,35.4-13.4c1.1,0.8,7.4,6.1,7.4,6.1l7.5-6.3C259.1,181.5,247.8,162.8,236,163.3z"/>
		<g id="cabeza">
			<circle id="pelao" class="st12" cx="222.9" cy="179.4" r="9.5"/>
			<path id="pelaes" class="st20" d="M219.4,169.8c-5.2,2-7.8,7.7-5.8,12.9c0,0,0,0,0,0c0.8,2,2.1,3.7,3.9,4.8
				c2.6-0.6-4.4-11.2,3.6-13.8c8-2.2,9.2,9.4,11.5,8c0.5-2,0.4-4.2-0.3-6.2C230.2,170.5,224.6,168,219.4,169.8z"/>
		</g>
	</g>
</g>
</svg>
