<?xml version="1.0" encoding="utf-8"?>
<!-- Generator: Adobe Illustrator 23.0.2, SVG Export Plug-In . SVG Version: 6.00 Build 0)  -->
<svg version="1.1" id="Capa_1" xmlns="http://www.w3.org/2000/svg" xmlns:xlink="http://www.w3.org/1999/xlink" x="0px" y="0px"
	 viewBox="0 0 500 500" style="enable-background:new 0 0 500 500;" xml:space="preserve">
<style type="text/css">
	.st0{fill:#70926C;}
	.st1{fill:#190094;}
	.st2{fill:#161616;}
	.st3{clip-path:url(#SVGID_2_);fill:#FFFFFF;}
	.st4{clip-path:url(#SVGID_2_);}
	.st5{fill:#CF142C;}
	.st6{fill:#01247D;}
	.st7{fill:#D3C1B2;}
</style>
<g>
	<polygon class="st0" points="263,129 188,101 177,108 207,199 208,271 206,287 216,369 231,353 234,279 	"/>
	<polygon class="st1" points="225,238 278,238 271,309 260,337 266,374 256,384 256,399 240,376 242,336 	"/>
	<polygon class="st2" points="241,332.3 241,299 226.1,245.7 	"/>
	<g>
		<defs>
			<path id="SVGID_1_" d="M305,120l-48,11l-47-10l-14,4l22,39l1,81l63-2l5-80l25-35L305,120z M253,158l-29-13l53-1L253,158z"/>
		</defs>
		<clipPath id="SVGID_2_">
			<use xlink:href="#SVGID_1_"  style="overflow:visible;"/>
		</clipPath>
		<path class="st3" d="M305,120l-48,11l-47-10l-14,4l22,39l1,81l63-2l5-80l25-35L305,120z M253,158l-29-13l53-1L253,158z"/>
		<g class="st4">
			<path class="st5" d="M256.5,153.6c0.9,0.4,1.9,0.4,2.9,0.5c0.9,0.1,1,0.4,1,1.2c0,11.6-0.4,32.7-0.4,44.2c0,0.9,0.2,1.1,1.1,1.1
				c11.6,0,23.1,0,34.7,0c0.9,0,1.2,0.2,1.4,1.2c0.6,4.5,0.6,8.9,0,13.3c-0.1,0.9-0.4,1.2-1.4,1.2c-11.6,0-23.1,0-34.7,0
				c-0.9,0-1,0.2-1,1c0,11.5,0,22.9,0,34.4c0,0.7-0.1,1-0.9,1.1c-4.6,0.6-9.2,0.6-13.8-0.1c-0.7-0.1-1-0.3-1-1.1
				c0-11.5,0-22.9,0-34.4c0-0.7-0.1-1-0.9-1c-11.4,0-22.8,0-34.2,0c-0.8,0-1.1-0.2-1.2-1c-0.7-4.7-0.7-9.3,0-14
				c0.1-0.7,0.5-0.6,1-0.6c11.4,0,22.9,0,34.3,0c0.9,0,1.1-0.2,1.1-1.1c0-11.5,0.3-32.6,0.3-44.2c0-0.8,0.3-1.1,1-1.2
				c1.1-0.2,2.2,0,3.2-0.5C251.4,153.6,254,153.6,256.5,153.6z"/>
			<path class="st6" d="M263.5,227.9c2.5,2.1,4.9,4,7.3,6c3.3,2.8,6.7,5.5,10.1,8.3c0.5,0.4,0.6,0.6,0,1.1c-5,4-10.5,6.8-16.7,8.5
				c-0.4,0.1-0.7,0.2-0.7-0.5C263.5,243.5,263.5,235.8,263.5,227.9z"/>
			<path class="st6" d="M241,158c0,8-0.2,22.7-0.2,30.9c-1.4-1.2-2.8-2.3-4.2-3.4c-4.3-3.6-32.8-25.9-32.2-26.4
				C209.5,154.8,240.9,158,241,158z"/>
			<path class="st6" d="M263.5,187.2c0-2.2,0-4.2,0-6.2c0-5.2,0-17.7,0-23c0-0.7,27.9-2.7,32.7,1c0.4,0.3-26.9,23.4-32.3,27.9
				C263.8,186.9,263.7,187,263.5,187.2z"/>
			<path class="st6" d="M240.9,229.7c0,0.3,0,0.5,0,0.7c0,6.8,0,13.7,0,20.5c0,0.8-0.3,0.8-0.9,0.6c-5.6-1.6-10.6-4.2-15.2-7.8
				c-0.3-0.2-0.6-0.4-0.1-0.8c5.3-4.4,10.6-8.7,15.9-13.1C240.6,229.8,240.7,229.7,240.9,229.7z"/>
			<path class="st5" d="M263.5,193c-0.8-2.2,0.7-3.7,2.7-5.2c5.2-4.1,17.9-15,23-19.3c0.7-0.6,1.9,0.4,3.1,1.7
				c0.4,0.5-5.1,9.4-5.6,9.8c-6.5,5.3-13,10.7-19.5,16.1c-1,0.8-2,1.1-3.2,1c-0.4,0-0.5-0.1-0.5-0.5
				C263.5,195.5,263.5,194.5,263.5,193z"/>
			<path class="st5" d="M240.9,223.3c0,0.6-0.1,1.3,0,1.9c0.1,1.1-0.3,1.8-1.2,2.5c-5.6,4.5-15.8,13.3-21.3,17.9
				c-0.5,0.4-0.8,0.4-1.2,0c-1.3-1.3-2.6-2.6-3.8-4c-0.3-0.4-0.3-0.6,0.1-0.9c6.6-5.5,18-15.2,24.7-20.6c0.8-0.6,1.7-0.2,2.6-0.3
				c0.2,0,0.2,0.3,0.2,0.5C240.9,221.2,240.9,222.3,240.9,223.3z"/>
			<path class="st5" d="M266.1,219.8c0.3-0.2,0.6-0.1,0.8-0.1c3,0,6.1,0,9.1,0c0.5,0,0.9,0.1,1.3,0.4c4.4,3.6,8.7,7.2,13.1,10.8
				c0.5,0.4,0.6,0.7,0.2,1.3c-1,1.5-2.1,3-3.2,4.4c-0.3,0.3-0.4,0.5-0.9,0.2c-6.8-5.6-13.6-11.3-20.4-16.9
				C266.1,219.9,266.1,219.8,266.1,219.8z"/>
			<path class="st5" d="M238.4,197.1c-3.7,0-7.2,0-10.6,0c-0.3,0-0.5-0.2-0.7-0.3c-4.4-3.6-8.8-7.2-13.1-10.8
				c-0.3-0.3-0.4-0.5-0.2-0.8c1-1.6,2.1-3.2,3.2-4.7c0.4-0.5,0.6-0.5,1-0.1c5.5,4.6,11.1,9.1,16.6,13.7
				C235.9,195,237.1,195.9,238.4,197.1z"/>
			<path class="st6" d="M296.1,197.1c-6,0-11.9,0-17.8,0c-0.1-0.3,0.2-0.4,0.4-0.5c4.1-3.4,8.2-6.7,12.3-10.1c0.5-0.4,0.7-0.4,1,0.2
				C293.8,189.9,295.2,193.4,296.1,197.1z"/>
			<path class="st6" d="M209,219.7c5.7,0,11.3,0,17.1,0c-4.3,3.6-8.5,7-12.8,10.6C211.4,226.9,209.9,223.5,209,219.7z"/>
			<path class="st6" d="M280.2,219.7c5.3,0,10.3,0,15.3,0c0.5,0,0.6,0.1,0.4,0.6c-0.8,3-2,5.9-3.4,8.7c-0.1,0.3-0.2,0.7-0.7,0.3
				C288,226.1,284.2,223,280.2,219.7z"/>
			<path class="st6" d="M224.1,197.1c-0.3,0-0.5,0-0.6,0c-4.6,0-9.3,0-13.9,0c-0.6,0-0.7-0.1-0.6-0.7c0.8-2.9,1.9-5.7,3.2-8.3
				c0.2-0.4,0.3-0.6,0.7-0.2C216.6,190.9,220.3,193.9,224.1,197.1z"/>
			<rect x="193.8" y="120" class="st6" width="113.5" height="39"/>
		</g>
	</g>
	<circle class="st7" cx="251.5" cy="139.5" r="19.5"/>
</g>
</svg>
