<?xml version="1.0" encoding="utf-8"?>
<!-- Generator: Adobe Illustrator 23.0.2, SVG Export Plug-In . SVG Version: 6.00 Build 0)  -->
<svg version="1.1" id="Capa_1" xmlns="http://www.w3.org/2000/svg" xmlns:xlink="http://www.w3.org/1999/xlink" x="0px" y="0px"
	 viewBox="0 0 500 500" style="enable-background:new 0 0 500 500;" xml:space="preserve">
<style type="text/css">
	.st0{fill:#70926C;}
	.st1{fill:#418D00;}
	.st2{fill:#F77F06;}
	.st3{fill:#D3B49F;}
	.st4{fill:#417C00;}
	.st5{fill:#FFFFFF;}
	.st6{fill:#05058A;}
	.st7{fill:#F7F7FB;}
</style>
<g id="Capa_1_1_">
</g>
<g id="Capa_2_1_">
	<polygon class="st0" points="263,129 188,101 177,108 207,199 208,271 206,287 216,369 231,353 234,279 	"/>
	<polygon class="st1" points="225,238 278,238 271,309 260,337 266,374 256,384 256,399 240,376 242,336 	"/>
	<path class="st2" d="M305,120l-48,11l-47-10l-14,4l22,39l1,81l63-2l5-80l25-35L305,120z M253,158l-29-13l53-1L253,158z"/>
	<circle class="st3" cx="251.5" cy="139.5" r="19.5"/>
	<polygon class="st4" points="241,332.3 241,299 226.1,245.7 	"/>
	<polygon class="st5" points="218.4,200.3 284.8,197.9 282,243 219,245 	"/>
	<g>
		<path class="st6" d="M251.7,201.7c10.7,0,19.2,8.7,19.2,19.4c0,10.6-8.7,19.2-19.3,19.2c-10.7-0.1-19.3-8.7-19.2-19.5
			C232.4,210.2,241.1,201.6,251.7,201.7z M262.5,233.6c0.5,0.1,2-1.4,1.8-2c-0.2-0.7,0.1-1.1,0.8-1.2c1-0.2,1.8-1.6,1.5-2.6
			c-0.2-0.5-0.1-1,0.5-1.2c0.9-0.4,1.4-2.1,0.8-2.9c-0.4-0.5-0.3-0.9,0.2-1.3c0.8-0.7,0.8-2.3,0-3c-0.5-0.4-0.6-0.8-0.2-1.3
			c0.6-0.8,0.2-2.5-0.8-2.9c-0.6-0.2-0.7-0.7-0.5-1.2c0.4-1-0.5-2.4-1.5-2.6c-0.6-0.1-0.9-0.4-0.8-1c0.1-1.1-1-2.2-2.2-2.1
			c-0.6,0-0.9-0.2-0.9-0.7c-0.2-1.1-1.6-1.9-2.7-1.5c-0.5,0.2-0.9,0-1.1-0.5c-0.5-1-2.1-1.4-2.9-0.8c-0.5,0.3-0.9,0.3-1.3-0.2
			c-0.6-0.8-2.3-0.8-3,0c-0.4,0.5-0.8,0.5-1.3,0.1c-0.8-0.6-2.5-0.1-2.9,0.8c-0.2,0.5-0.6,0.7-1.2,0.5c-0.9-0.4-2.5,0.5-2.6,1.5
			c-0.1,0.6-0.4,0.9-1,0.8c-1-0.1-2.3,1.1-2.1,2.1c0.1,0.6-0.2,0.9-0.7,1c-1.1,0.2-1.9,1.6-1.5,2.6c0.2,0.5,0.1,0.9-0.5,1.1
			c-1,0.5-1.4,2-0.8,2.9c0.3,0.5,0.3,0.8-0.2,1.2c-0.9,0.8-0.9,2.3,0,3.1c0.4,0.3,0.5,0.7,0.2,1.2c-0.6,1-0.3,2.5,0.8,3
			c0.5,0.2,0.7,0.6,0.5,1.1c-0.4,1.1,0.4,2.4,1.5,2.6c0.6,0.1,0.9,0.4,0.8,1c-0.1,1,1.1,2.2,2.1,2.1c0.6-0.1,0.9,0.2,1,0.8
			c0.1,1,1.7,1.9,2.6,1.5c0.6-0.3,0.9-0.1,1.2,0.5c0.4,0.9,2.1,1.4,2.9,0.8c0.5-0.4,0.9-0.3,1.3,0.2c0.5,0.7,2.4,0.7,2.9,0
			c0.4-0.5,0.8-0.6,1.4-0.1c0.6,0.5,2.5,0.1,2.8-0.7c0.2-0.7,0.6-1,1.3-0.6c0.6,0.3,2.5-0.7,2.5-1.4
			C261.1,233.6,261.6,233.4,262.5,233.6z"/>
		<path class="st7" d="M262.5,233.6c-0.9-0.2-1.3,0-1.4,0.9c0,0.7-1.8,1.7-2.5,1.4c-0.7-0.4-1.1-0.2-1.3,0.6
			c-0.3,0.8-2.2,1.2-2.8,0.7c-0.5-0.4-0.9-0.4-1.4,0.1c-0.6,0.7-2.4,0.8-2.9,0c-0.4-0.5-0.8-0.6-1.3-0.2c-0.8,0.6-2.5,0.1-2.9-0.8
			c-0.2-0.5-0.6-0.7-1.2-0.5c-0.9,0.4-2.5-0.5-2.6-1.5c-0.1-0.6-0.4-0.8-1-0.8c-1,0.1-2.2-1.1-2.1-2.1c0.1-0.6-0.2-0.9-0.8-1
			c-1.1-0.2-1.9-1.5-1.5-2.6c0.2-0.5,0-0.9-0.5-1.1c-1-0.5-1.4-2-0.8-3c0.3-0.5,0.2-0.8-0.2-1.2c-0.9-0.7-0.9-2.3,0-3.1
			c0.4-0.4,0.5-0.7,0.2-1.2c-0.7-0.9-0.3-2.4,0.8-2.9c0.5-0.2,0.6-0.6,0.5-1.1c-0.4-1.1,0.4-2.4,1.5-2.6c0.6-0.1,0.8-0.4,0.7-1
			c-0.1-1,1.1-2.2,2.1-2.1c0.6,0.1,0.9-0.2,1-0.8c0.1-1,1.7-1.9,2.6-1.5c0.6,0.3,0.9,0.1,1.2-0.5c0.4-0.9,2.1-1.4,2.9-0.8
			c0.5,0.4,0.9,0.4,1.3-0.1c0.7-0.8,2.4-0.8,3,0c0.4,0.5,0.8,0.5,1.3,0.2c0.9-0.6,2.5-0.2,2.9,0.8c0.2,0.5,0.6,0.7,1.1,0.5
			c1-0.4,2.5,0.4,2.7,1.5c0.1,0.6,0.4,0.8,0.9,0.7c1.2-0.1,2.3,1,2.2,2.1c-0.1,0.6,0.2,0.9,0.8,1c1,0.2,1.9,1.6,1.5,2.6
			c-0.2,0.5-0.1,1,0.5,1.2c0.9,0.4,1.4,2.1,0.8,2.9c-0.4,0.5-0.3,0.9,0.2,1.3c0.8,0.7,0.8,2.3,0,3c-0.5,0.4-0.6,0.8-0.2,1.3
			c0.6,0.8,0.2,2.5-0.8,2.9c-0.6,0.2-0.7,0.7-0.5,1.2c0.4,1-0.5,2.4-1.5,2.6c-0.7,0.1-0.9,0.5-0.8,1.2
			C264.4,232.2,263,233.7,262.5,233.6z M241.8,230.6c-0.1,0.1-0.4,0.2-0.2,0.3c0.1,0.2,0.3,0.1,0.4-0.1c0.1-0.1,0.3-0.1,0.2-0.2
			C242,230.4,241.9,230.5,241.8,230.6z M241.8,211.3C241.8,211.3,241.9,211.4,241.8,211.3c2.2,2.5,4.1,5.1,6.8,7
			c0.2,0.1,0.6,0.3,0.4,0.6c-0.3,0.4-0.5,0-0.7-0.2c-2.3-2-5.1-3-7.8-4.4c-0.3-0.1-0.5-0.3-0.9-0.1c1.9,1.3,3.8,2.5,5.7,3.7
			c0.9,0.5,1.9,0.8,2.8,1.3c0.2,0.1,0.6,0.1,0.4,0.5c-0.1,0.3-0.4,0.1-0.6,0c-1.8-0.9-3.7-1.3-5.6-1.7c-1.7-0.3-3.3-0.7-5-1
			c3.4,1.1,6.7,2.8,10.3,3.2c0.2,0,0.8-0.2,0.7,0.3c-0.1,0.5-0.5,0.2-0.8,0.2c-3.8-0.6-7.6,0.2-11.4,0.3c3.7,0.1,7.4,0.9,11.1,0.3
			c0.3,0,1-0.4,1,0.1c0.1,0.5-0.7,0.4-1,0.4c-3.5,0.4-6.7,2-10.3,3c0.4,0.1,0.5,0.1,0.6,0.1c3.3-0.8,6.8-1,10-2.5
			c0.3-0.1,0.5-0.2,0.8-0.3c0.1,0,0.2,0.1,0.3,0.1c0.1,0.1,0.1,0.3-0.1,0.3c-0.2,0.1-0.4,0.2-0.7,0.3c-3,1.1-5.4,3.2-8.2,4.8
			c0.4,0.2,0.7,0.1,1-0.1c2.6-1.4,5.5-2.5,7.8-4.4c0.2-0.2,0.4-0.5,0.7-0.2c0.2,0.3-0.1,0.4-0.3,0.6c-2.4,1.6-4.1,3.9-6,6
			c-0.2,0.2-0.4,0.5-0.6,0.8c0.2,0,0.3,0.1,0.3,0.1c0.2-0.1,0.4-0.3,0.6-0.4c2.1-2,4.5-3.7,6.1-6.1c0.1-0.2,0.2-0.5,0.5-0.3
			c0.4,0.3,0,0.5-0.1,0.7c-0.1,0.2-0.3,0.4-0.4,0.6c-1.9,2.3-2.8,5.2-4.4,7.9c0.7-0.4,0.7-0.4,1-0.8c1.6-2.4,3.4-4.7,4.3-7.5
			c0.1-0.2,0.1-0.5,0.5-0.4c0.3,0.1,0.1,0.4,0,0.5c-1.4,2.9-1.7,6-2.4,9.1c0,0.2-0.4,0.5,0.2,0.8c0-0.1,0-0.2,0.1-0.2
			c0.9-3,2.3-5.9,2.6-9.1c0-0.3-0.1-0.9,0.4-0.8c0.4,0.1,0.2,0.6,0.1,0.8c-0.6,3.1,0,6.2,0.1,9.4c0.4-0.6,0.4-0.6,0.4-1
			c0.1-2.9,0.6-5.8,0-8.7c0-0.2-0.1-0.6,0.2-0.6c0.3,0,0.3,0.3,0.3,0.5c0,0.2,0,0.3,0.1,0.5c0.3,3.2,1.7,6.1,2.7,9.2
			c0.2-1.2-0.2-2.2-0.4-3.3c-0.4-2.2-0.8-4.4-1.8-6.4c-0.1-0.2-0.4-0.5,0-0.7c0.4-0.1,0.4,0.3,0.5,0.5c0.3,0.6,0.5,1.2,0.7,1.7
			c1.2,2.3,2.8,4.3,4.2,6.8c0-0.5,0-0.6,0-0.7c-0.1-0.2-0.2-0.5-0.3-0.7c-1.3-2.5-2.4-5.3-4.3-7.5c-0.1-0.2-0.5-0.4-0.1-0.6
			c0.3-0.2,0.4,0.1,0.6,0.3c0.1,0.1,0.1,0.2,0.2,0.2c1.8,2.5,4.3,4.3,6.5,6.3c0.1,0.1,0.2,0.1,0.2-0.1c0.1-0.3-0.1-0.4-0.3-0.5
			c-2-2.2-3.7-4.6-6.2-6.3c-0.2-0.1-0.6-0.3-0.4-0.6c0.3-0.4,0.5,0,0.7,0.2c2.5,2.1,5.6,3.2,8.4,4.8c0.1-0.5-0.3-0.6-0.5-0.8
			c-2.5-1.6-4.8-3.5-7.6-4.5c-0.2-0.1-0.7-0.1-0.5-0.5c0.2-0.4,0.5-0.1,0.7,0c2.2,1.1,4.6,1.4,6.9,1.9c0.5,0.1,1,0.2,1.5,0.3
			c0.5,0.1,0.9,0.4,1.7,0c-3.4-0.9-6.4-2.4-9.7-2.7c-0.3,0-0.9,0.2-0.8-0.4c0.1-0.5,0.5-0.1,0.8-0.1c3.7,0.6,7.3-0.1,10.9-0.3
			c-1.3-0.2-2.5-0.2-3.8-0.3c-2.5-0.2-4.9-0.4-7.4,0.1c-0.2,0-0.5,0.2-0.6-0.2c0-0.4,0.3-0.3,0.5-0.3c0.4-0.1,0.8-0.1,1.1-0.2
			c3-0.4,5.7-1.8,8.6-2.6c-0.2-0.1-0.3-0.2-0.5-0.1c-3,0.7-6.1,0.9-9,2.3c-0.3,0.1-0.5,0.2-0.8,0.3c-0.1,0-0.2,0-0.3-0.1
			c-0.1-0.1-0.1-0.3,0.1-0.3c0.2-0.1,0.3-0.2,0.5-0.2c2.9-1,5.2-3,7.7-4.5c0.2-0.1,0.4-0.2,0.4-0.4c-0.3-0.2-0.5,0-0.7,0.1
			c-2.6,1.4-5.5,2.5-7.8,4.4c-0.2,0.2-0.4,0.5-0.7,0.2c-0.2-0.3,0.1-0.4,0.3-0.5c2.4-1.7,4.1-4,6.1-6.1c0.2-0.2,0.6-0.4,0.4-0.9
			c-2.3,2.2-4.9,4-6.8,6.7c-0.1,0.2-0.2,0.6-0.6,0.3c-0.3-0.2,0-0.4,0.2-0.6c2.1-2.4,3.2-5.4,4.6-8.2c0.1-0.2,0.4-0.4,0.2-0.8
			c-0.1,0.1-0.2,0.1-0.3,0.2c-1.7,2.8-3.8,5.2-4.9,8.3c-0.1,0.2-0.1,0.8-0.6,0.6c-0.4-0.2,0-0.6,0.1-0.8c0.8-1.7,1.2-3.4,1.5-5.2
			c0.2-1.4,0.7-2.7,0.6-4.1c-1,3-2.4,6-2.7,9.2c0,0.3,0.1,0.8-0.4,0.7c-0.4,0-0.2-0.5-0.2-0.8c0.5-2.5,0.2-4.9,0-7.4
			c0-0.6-0.1-1.3-0.1-1.9c-0.3,0-0.3,0.2-0.4,0.3c-0.1,3-0.6,6-0.1,9c0,0.3,0.3,0.7-0.2,0.8c-0.3,0.1-0.3-0.3-0.3-0.6
			c-0.2-3.1-1.6-6-2.4-8.9c-0.1-0.2,0-0.6-0.4-0.6c0,0-0.1,0.1-0.1,0.1c0.8,3.2,1,6.5,2.4,9.4c0.1,0.2,0.4,0.5,0.1,0.7
			c-0.4,0.2-0.4-0.2-0.5-0.5c-1-2.8-2.9-5.1-4.4-7.6c-0.2-0.3-0.3-0.7-0.8-0.5c1.6,2.8,2.6,5.8,4.7,8.3c0.2,0.2,0.6,0.5,0.2,0.8
			c-0.4,0.3-0.5-0.3-0.7-0.5c-1.9-2.6-4.4-4.5-6.7-6.5c-0.1-0.1-0.2-0.1-0.2-0.2c-0.1-0.2-0.2-0.3-0.4-0.1
			C241.5,211.1,241.7,211.2,241.8,211.3z"/>
		<path class="st6" d="M242.2,211.3c2.4,2.1,4.9,3.9,6.7,6.5c0.2,0.2,0.3,0.7,0.7,0.5c0.4-0.3-0.1-0.6-0.2-0.8
			c-2.1-2.5-3.1-5.5-4.7-8.3c0.5-0.1,0.7,0.3,0.8,0.5c1.5,2.5,3.4,4.8,4.4,7.6c0.1,0.2,0.1,0.7,0.5,0.5c0.4-0.2,0-0.5-0.1-0.7
			c-1.4-3-1.7-6.3-2.4-9.4c0,0,0-0.1,0.1-0.1c0.4,0,0.4,0.4,0.4,0.6c0.9,3,2.2,5.8,2.4,8.9c0,0.2,0,0.6,0.3,0.6
			c0.5-0.1,0.3-0.5,0.2-0.8c-0.6-3,0-6,0.1-9c0-0.1,0-0.3,0.4-0.3c0.1,0.6,0.1,1.3,0.1,1.9c0.1,2.5,0.4,4.9,0,7.4
			c-0.1,0.3-0.3,0.7,0.2,0.8c0.4,0,0.3-0.5,0.4-0.7c0.3-3.3,1.7-6.2,2.7-9.2c0.1,1.4-0.4,2.8-0.6,4.1c-0.3,1.8-0.8,3.6-1.5,5.2
			c-0.1,0.2-0.5,0.6-0.1,0.8c0.4,0.2,0.5-0.3,0.6-0.6c1.1-3.1,3.3-5.6,4.9-8.3c0-0.1,0.2-0.1,0.3-0.2c0.2,0.3-0.1,0.6-0.2,0.8
			c-1.5,2.8-2.6,5.7-4.6,8.2c-0.1,0.2-0.5,0.4-0.2,0.6c0.4,0.3,0.5-0.1,0.6-0.3c1.8-2.6,4.4-4.5,6.8-6.7c0.3,0.5-0.1,0.7-0.4,0.9
			c-1.9,2.1-3.7,4.5-6.1,6.1c-0.2,0.1-0.5,0.3-0.3,0.5c0.3,0.4,0.5,0,0.7-0.2c2.3-2,5.1-3,7.8-4.4c0.2-0.1,0.4-0.3,0.7-0.1
			c0,0.3-0.2,0.3-0.4,0.4c-2.5,1.6-4.9,3.5-7.7,4.5c-0.2,0.1-0.3,0.1-0.5,0.2c-0.2,0.1-0.2,0.2-0.1,0.3c0.1,0.1,0.2,0.1,0.3,0.1
			c0.3-0.1,0.5-0.2,0.8-0.3c2.8-1.3,6-1.5,9-2.3c0.1,0,0.3,0,0.5,0.1c-2.9,0.9-5.6,2.2-8.6,2.6c-0.4,0.1-0.8,0.1-1.1,0.2
			c-0.2,0-0.6-0.1-0.5,0.3c0,0.4,0.4,0.2,0.6,0.2c2.5-0.4,4.9-0.2,7.4-0.1c1.3,0.1,2.5,0.2,3.8,0.3c-3.6,0.2-7.2,0.8-10.9,0.3
			c-0.3,0-0.7-0.4-0.8,0.1c-0.1,0.6,0.5,0.4,0.8,0.4c3.3,0.3,6.3,1.8,9.7,2.7c-0.7,0.4-1.2,0-1.7,0c-0.5-0.1-1-0.2-1.5-0.3
			c-2.3-0.5-4.7-0.9-6.9-1.9c-0.2-0.1-0.5-0.4-0.7,0c-0.1,0.4,0.3,0.4,0.5,0.5c2.8,1,5.1,2.9,7.6,4.5c0.2,0.2,0.6,0.3,0.5,0.8
			c-2.8-1.6-5.9-2.7-8.4-4.8c-0.2-0.1-0.4-0.5-0.7-0.2c-0.3,0.4,0.2,0.5,0.4,0.6c2.5,1.7,4.2,4.1,6.2,6.3c0.1,0.1,0.3,0.3,0.3,0.5
			c-0.1,0.1-0.2,0.1-0.2,0.1c-2.2-2.1-4.7-3.8-6.5-6.3c-0.1-0.1-0.1-0.2-0.2-0.2c-0.2-0.1-0.2-0.5-0.6-0.3c-0.3,0.2,0,0.5,0.1,0.6
			c1.9,2.2,3,4.9,4.3,7.5c0.1,0.2,0.2,0.4,0.3,0.7c0,0.1,0,0.3,0,0.7c-1.5-2.5-3.1-4.5-4.2-6.8c-0.3-0.6-0.5-1.2-0.7-1.7
			c-0.1-0.2-0.1-0.7-0.5-0.5c-0.4,0.2-0.1,0.5,0,0.7c1,2,1.4,4.2,1.8,6.4c0.2,1.1,0.7,2.2,0.4,3.3c-0.9-3.1-2.4-6-2.7-9.2
			c0-0.2,0-0.4-0.1-0.5c0-0.2,0-0.5-0.3-0.5c-0.4,0-0.3,0.4-0.2,0.6c0.6,2.9,0.1,5.8,0,8.7c0,0.4,0,0.4-0.4,1c0-3.2-0.7-6.3-0.1-9.4
			c0.1-0.3,0.2-0.8-0.1-0.8c-0.5-0.1-0.4,0.5-0.4,0.8c-0.3,3.2-1.6,6.1-2.6,9.1c0,0.1-0.1,0.2-0.1,0.2c-0.6-0.3-0.2-0.6-0.2-0.8
			c0.7-3.1,1-6.2,2.4-9.1c0.1-0.2,0.2-0.4,0-0.5c-0.3-0.1-0.4,0.2-0.5,0.4c-1,2.8-2.8,5-4.3,7.5c-0.3,0.4-0.3,0.4-1,0.8
			c1.6-2.7,2.5-5.6,4.4-7.9c0.2-0.2,0.3-0.4,0.4-0.6c0.1-0.2,0.5-0.4,0.1-0.7c-0.3-0.2-0.4,0.2-0.5,0.3c-1.7,2.4-4,4.1-6.1,6.1
			c-0.2,0.2-0.4,0.3-0.6,0.4c0,0-0.1,0-0.3-0.1c0.2-0.3,0.4-0.6,0.6-0.8c1.9-2.1,3.6-4.4,6-6c0.2-0.1,0.5-0.3,0.3-0.6
			c-0.3-0.3-0.5,0-0.7,0.2c-2.3,2-5.1,3-7.8,4.4c-0.3,0.1-0.5,0.3-1,0.1c2.8-1.6,5.2-3.7,8.2-4.8c0.2-0.1,0.4-0.2,0.7-0.3
			c0.1-0.1,0.2-0.2,0.1-0.3c-0.1-0.1-0.2-0.1-0.3-0.1c-0.3,0.1-0.5,0.2-0.8,0.3c-3.2,1.4-6.7,1.7-10,2.5c-0.1,0-0.2,0-0.6-0.1
			c3.6-0.9,6.8-2.6,10.3-3c0.3,0,1.1,0.1,1-0.4c-0.1-0.6-0.7-0.2-1-0.1c-3.7,0.5-7.4-0.3-11.1-0.3c3.8-0.1,7.6-0.9,11.4-0.3
			c0.2,0,0.7,0.4,0.8-0.2c0-0.5-0.5-0.3-0.7-0.3c-3.6-0.4-6.9-2-10.3-3.2c1.7,0.3,3.3,0.7,5,1c1.9,0.4,3.9,0.8,5.6,1.7
			c0.2,0.1,0.5,0.3,0.6,0c0.2-0.4-0.2-0.4-0.4-0.5c-0.9-0.4-1.9-0.7-2.8-1.3c-1.9-1.2-3.8-2.4-5.7-3.7c0.4-0.2,0.6-0.1,0.9,0.1
			c2.6,1.4,5.5,2.5,7.8,4.4c0.2,0.2,0.4,0.5,0.7,0.2c0.3-0.4-0.2-0.5-0.4-0.6c-2.7-1.9-4.6-4.5-6.7-6.9
			C242,211.3,242.1,211.3,242.2,211.3z"/>
		<path class="st6" d="M241.8,211.3c-0.1-0.1-0.4-0.2-0.2-0.3c0.1-0.2,0.3-0.1,0.4,0.1C241.9,211.1,241.8,211.2,241.8,211.3z"/>
		<path class="st6" d="M241.9,230.8c-0.1,0.2-0.2,0.3-0.4,0.1c-0.1-0.2,0.1-0.2,0.2-0.3C241.8,230.7,241.9,230.7,241.9,230.8z"/>
		<path class="st6" d="M241.9,211.1c0.1,0.1,0.2,0.1,0.2,0.2c-0.1,0-0.2,0.1-0.2,0.1c0,0-0.1-0.1-0.1-0.1
			C241.8,211.2,241.9,211.1,241.9,211.1z"/>
		<path class="st6" d="M241.8,230.6c0.1-0.1,0.2-0.2,0.3,0c0.1,0.2-0.1,0.2-0.2,0.2C241.9,230.7,241.8,230.7,241.8,230.6z"/>
	</g>
</g>
</svg>
