<?xml version="1.0" encoding="utf-8"?>
<!-- Generator: Adobe Illustrator 23.0.2, SVG Export Plug-In . SVG Version: 6.00 Build 0)  -->
<svg version="1.1" id="Capa_1" xmlns="http://www.w3.org/2000/svg" xmlns:xlink="http://www.w3.org/1999/xlink" x="0px" y="0px"
	 viewBox="0 0 500 500" style="enable-background:new 0 0 500 500;" xml:space="preserve">
<style type="text/css">
	.st0{fill:#70926C;}
	.st1{fill:#0790FF;}
	.st2{fill:#FFFFFF;}
	.st3{fill:#D3C1B2;}
	.st4{fill:#14300B;}
</style>
<g id="Capa_1_1_">
</g>
<g id="Capa_2_1_">
	<path class="st0" d="M306,120.9l-48,11l-47-10l-14,4l22,39l1,81l63-2l5-80l25-35L306,120.9z M254,158.9l-29-13l53-1L254,158.9z"/>
	<polygon class="st0" points="263,129 188,101 177,108 207,199 208,271 206,287 216,369 231,353 234,279 	"/>
	<polygon class="st1" points="225,238 278,238 271,309 260,337 266,374 256,384 256,399 240,376 242,336 	"/>
	<path class="st2" d="M305,120l-48,11l-47-10l-14,4l22,39l1,81l63-2l5-80l25-35L305,120z M253,158l-29-13l53-1L253,158z"/>
	<circle class="st3" cx="251.5" cy="139.5" r="19.5"/>
	<polygon class="st4" points="241,332.3 241,299 226.1,245.7 	"/>
	<polygon class="st1" points="218.9,237.3 218.9,233.6 282.8,230.7 282.8,233.6 	"/>
	<polygon class="st1" points="218.9,227.8 218.7,224.3 283.4,219.9 283.4,223.1 	"/>
	<polygon class="st1" points="218.9,218.7 218.6,215 284,211.6 284,214.5 	"/>
	<polygon class="st1" points="218.7,207.9 284.3,205.7 284.6,202 218.5,203.5 	"/>
	<polygon class="st1" points="218.4,197.6 285,194.3 285,191 218.4,193.6 	"/>
	<polygon class="st1" points="218.3,187.3 285.6,186 285.8,181.4 218.2,181.4 	"/>
	<polygon class="st1" points="218.2,176.7 286.2,175.2 286.5,171.6 218.1,173 	"/>
</g>
</svg>
